<?xml version="1.0" encoding="utf-8"?>
<svg version="1.1" xmlns:xlink="http://www.w3.org/1999/xlink" width="12px" height="12px" xmlns="http://www.w3.org/2000/svg">
  <g transform="matrix(1 0 0 1 -777 -1335 )">
    <path d="M 10.266359100004447 0.2536989905748307  L 10.267012100004388 0.25304808057486156  C 10.60688350000352 -0.08537256040857609  11.15674790000217 -0.08419645940863499  11.495168600001223 0.255674970574735  C 11.834519300000432 0.5964804705580552  11.833925500000387 1.14767653053108  11.493841400001237 1.4877501405144389  L 7.105000000012447 5.876000000299692  L 11.493841400001237 10.26429470008494  C 11.833925500000387 10.6043683000683  11.834519300000432 11.155564300041327  11.495168600001223 11.496369800024645  C 11.15674790000217 11.836241300008012  10.60688350000352 11.837417400007956  10.267012100004388 11.498996700024517  L 5.874000000015577 7.1060000002395  L 1.482934440026711 11.498345800024548  L 1.3931826100269844 11.57652750002072  C 1.0522343000278056 11.834869300008082  0.564343910029083 11.807918700009402  0.2541249900298595 11.496369800024645  C -0.08522572396931272 11.155564300041327  -0.08463197496929636 10.6043683000683  0.2554521800298397 10.26429470008494  L 4.644000000018682 5.876000000299692  L 0.2554521800298397 1.4877501405144389  C -0.08463197496929636 1.14767653053108  -0.08522572396931272 0.5964804705580552  0.2541249900298595 0.255674970574735  C 0.564343910029083 -0.055873839410020165  1.0522343000278056 -0.08282449240870139  1.3931826100269844 0.17551733057865462  L 1.482934440026711 0.2536989905748307  L 5.874000000015577 4.645000000359932  L 10.266359100004447 0.2536989905748307  Z " fill-rule="nonzero" fill="#999999" stroke="none" transform="matrix(1 0 0 1 777 1335 )" />
  </g>
</svg>