<?xml version="1.0" encoding="utf-8"?>
<svg version="1.1" xmlns:xlink="http://www.w3.org/1999/xlink" width="9px" height="14px" xmlns="http://www.w3.org/2000/svg">
  <g transform="matrix(1 0 0 1 -254 -320 )">
    <path d="M 9 7  C 9 7.150537634408602  8.944980694980694 7.2808105872621995  8.834942084942085 7.3908188585607935  L 2.388996138996139 13.834987593052109  C 2.2789575289575295 13.944995864350703  2.148648648648649 14  1.9980694980694982 14  C 1.8474903474903477 14  1.7171814671814674 13.944995864350703  1.6071428571428572 13.834987593052109  L 0.16505791505791506 12.393300248138958  C 0.055019305019305104 12.283291976840363  0 12.153019023986765  0 12.002481389578165  C 0 11.851943755169563  0.055019305019305104 11.721670802315963  0.16505791505791506 11.61166253101737  L 4.777992277992278 7  L 0.16505791505791506 2.3883374689826304  C 0.055019305019305104 2.2783291976840347  0 2.1480562448304377  0 1.9975186104218356  C 0 1.846980976013232  0.055019305019305104 1.7167080231596348  0.16505791505791506 1.6066997518610422  L 1.6071428571428572 0.16501240694789043  C 1.7171814671814674 0.05500413564929629  1.8474903474903477 0  1.9980694980694982 0  C 2.148648648648649 0  2.2789575289575295 0.05500413564929629  2.388996138996139 0.16501240694789043  L 8.834942084942085 6.6091811414392065  C 8.944980694980694 6.7191894127378  9 6.849462365591398  9 7  Z " fill-rule="nonzero" fill="#cccccc" stroke="none" transform="matrix(1 0 0 1 254 320 )" />
  </g>
</svg>