<?xml version="1.0" encoding="utf-8"?>
<svg version="1.1" xmlns:xlink="http://www.w3.org/1999/xlink" width="895px" height="10px" preserveAspectRatio="xMinYMid meet" viewBox="614 119  895 8" xmlns="http://www.w3.org/2000/svg">
  <path d="M 1504.5 58  L 1504.5 118  A 5 5 0 0 1 1499.5 123.5 L 624 123.5  A 5 5 0 0 0 619.5 128.5 L 619.5 669  " stroke-width="1" stroke="#ff3399" fill="none" />
  <path d="M 1504.5 57  A 3 3 0 0 0 1501.5 60 A 3 3 0 0 0 1504.5 63 A 3 3 0 0 0 1507.5 60 A 3 3 0 0 0 1504.5 57 Z M 612 669  L 619.5 680  L 627 669  L 612 669  Z " fill-rule="nonzero" fill="#ff3399" stroke="none" />
</svg>