<?xml version="1.0" encoding="utf-8"?>
<svg version="1.1" xmlns:xlink="http://www.w3.org/1999/xlink" width="18px" height="18px" preserveAspectRatio="xMinYMid meet" viewBox="1764 332  18 16" xmlns="http://www.w3.org/2000/svg">
  <path d="M 1773.5 338  L 1773.5 655  A 5 5 0 0 1 1768.5 660.5 L 915 660.5  A 5 5 0 0 0 910.5 665.5 L 910.5 893  " stroke-width="1" stroke="#ff3399" fill="none" />
  <path d="M 1773.5 337  A 3 3 0 0 0 1770.5 340 A 3 3 0 0 0 1773.5 343 A 3 3 0 0 0 1776.5 340 A 3 3 0 0 0 1773.5 337 Z M 903 893  L 910.5 904  L 918 893  L 903 893  Z " fill-rule="nonzero" fill="#ff3399" stroke="none" />
</svg>