<?xml version="1.0" encoding="utf-8"?>
<svg version="1.1" xmlns:xlink="http://www.w3.org/1999/xlink" width="18px" height="18px" preserveAspectRatio="xMinYMid meet" viewBox="1448 541  18 16" xmlns="http://www.w3.org/2000/svg">
  <path d="M 1457.5 547  L 1457.5 1315  A 5 5 0 0 1 1452.5 1320.5 L 886 1320.5  A 5 5 0 0 0 881.5 1325.5 L 881.5 1719  " stroke-width="1" stroke="#ff3399" fill="none" />
  <path d="M 1457.5 546  A 3 3 0 0 0 1454.5 549 A 3 3 0 0 0 1457.5 552 A 3 3 0 0 0 1460.5 549 A 3 3 0 0 0 1457.5 546 Z M 874 1719  L 881.5 1730  L 889 1719  L 874 1719  Z " fill-rule="nonzero" fill="#ff3399" stroke="none" />
</svg>