<?xml version="1.0" encoding="utf-8"?>
<svg version="1.1" xmlns:xlink="http://www.w3.org/1999/xlink" width="18px" height="18px" preserveAspectRatio="xMinYMid meet" viewBox="1544 541  18 16" xmlns="http://www.w3.org/2000/svg">
  <path d="M 1553.5 547  L 1553.5 1369  A 5 5 0 0 1 1548.5 1374.5 L 1364 1374.5  A 5 5 0 0 0 1359.5 1379.5 L 1359.5 2199  " stroke-width="1" stroke="#ff3399" fill="none" />
  <path d="M 1553.5 546  A 3 3 0 0 0 1550.5 549 A 3 3 0 0 0 1553.5 552 A 3 3 0 0 0 1556.5 549 A 3 3 0 0 0 1553.5 546 Z M 1352 2199  L 1359.5 2210  L 1367 2199  L 1352 2199  Z " fill-rule="nonzero" fill="#ff3399" stroke="none" />
</svg>