<?xml version="1.0" encoding="utf-8"?>
<svg version="1.1" xmlns:xlink="http://www.w3.org/1999/xlink" width="400px" height="80px" xmlns="http://www.w3.org/2000/svg">
  <g transform="matrix(1 0 0 1 -1159 -2410 )">
    <path d="M 1160 2414  A 3 3 0 0 1 1163 2411 L 1555 2411  A 3 3 0 0 1 1558 2414 L 1558 2486  A 3 3 0 0 1 1555 2489 L 1163 2489  A 3 3 0 0 1 1160 2486 L 1160 2414  Z " fill-rule="nonzero" fill="#ff3399" stroke="none" fill-opacity="0.09803921568627451" />
    <path d="M 1159.5 2414  A 3.5 3.5 0 0 1 1163 2410.5 L 1555 2410.5  A 3.5 3.5 0 0 1 1558.5 2414 L 1558.5 2486  A 3.5 3.5 0 0 1 1555 2489.5 L 1163 2489.5  A 3.5 3.5 0 0 1 1159.5 2486 L 1159.5 2414  Z " stroke-width="1" stroke-dasharray="9,4" stroke="#ff3399" fill="none" stroke-dashoffset="0.5" />
  </g>
</svg>