<?xml version="1.0" encoding="utf-8"?>
<svg version="1.1" xmlns:xlink="http://www.w3.org/1999/xlink" width="410px" height="100px" xmlns="http://www.w3.org/2000/svg">
  <g transform="matrix(1 0 0 1 -230 -1560 )">
    <path d="M 231 1564  A 3 3 0 0 1 234 1561 L 636 1561  A 3 3 0 0 1 639 1564 L 639 1656  A 3 3 0 0 1 636 1659 L 234 1659  A 3 3 0 0 1 231 1656 L 231 1564  Z " fill-rule="nonzero" fill="#ff3399" stroke="none" fill-opacity="0.09803921568627451" />
    <path d="M 230.5 1564  A 3.5 3.5 0 0 1 234 1560.5 L 636 1560.5  A 3.5 3.5 0 0 1 639.5 1564 L 639.5 1656  A 3.5 3.5 0 0 1 636 1659.5 L 234 1659.5  A 3.5 3.5 0 0 1 230.5 1656 L 230.5 1564  Z " stroke-width="1" stroke-dasharray="9,4" stroke="#ff3399" fill="none" stroke-dashoffset="0.5" />
  </g>
</svg>