<?xml version="1.0" encoding="utf-8"?>
<svg version="1.1" xmlns:xlink="http://www.w3.org/1999/xlink" width="450px" height="121px" xmlns="http://www.w3.org/2000/svg">
  <g transform="matrix(1 0 0 1 -128 -1090 )">
    <path d="M 129 1094  A 3 3 0 0 1 132 1091 L 574 1091  A 3 3 0 0 1 577 1094 L 577 1207  A 3 3 0 0 1 574 1210 L 132 1210  A 3 3 0 0 1 129 1207 L 129 1094  Z " fill-rule="nonzero" fill="#ff3399" stroke="none" fill-opacity="0.09803921568627451" />
    <path d="M 128.5 1094  A 3.5 3.5 0 0 1 132 1090.5 L 574 1090.5  A 3.5 3.5 0 0 1 577.5 1094 L 577.5 1207  A 3.5 3.5 0 0 1 574 1210.5 L 132 1210.5  A 3.5 3.5 0 0 1 128.5 1207 L 128.5 1094  Z " stroke-width="1" stroke-dasharray="9,4" stroke="#ff3399" fill="none" stroke-dashoffset="0.5" />
  </g>
</svg>