<?xml version="1.0" encoding="utf-8"?>
<svg version="1.1" xmlns:xlink="http://www.w3.org/1999/xlink" width="13px" height="14px" xmlns="http://www.w3.org/2000/svg">
  <g transform="matrix(1 0 0 1 -1521 -2229 )">
    <path d="M 1.0335080990000165 1.259097324999999  L 1.0744163250000156 1.218189099  C 1.381310778999989 0.9112946444000016  1.8788849999999684 0.9112946444000016  2.185779459999992 1.218189099  L 6.815318999999988 5.847999999999999  L 11.44485850000001 1.218189099  C 11.751753000000008 0.9112946444000016  12.249327199999982 0.9112946444000016  12.55622169999998 1.218189099  L 12.59712989999997 1.259097324999999  C 12.904024399999969 1.5659917790000009  12.904024399999969 2.0635659999999945  12.59712989999997 2.370460460000004  L 7.967318999999976 7  L 12.59712989999997 11.629539499999993  C 12.87612489999998 11.908534500000002  12.901487999999972 12.345116000000004  12.673219399999994 12.652763100000001  L 12.59712989999997 12.740902699999992  L 12.55622169999998 12.781810899999996  C 12.249327199999982 13.088705399999995  11.751753000000008 13.088705399999995  11.44485850000001 12.781810899999996  L 6.815318999999988 8.152000000000001  L 2.185779459999992 12.781810899999996  C 1.8788849999999684 13.088705399999995  1.381310778999989 13.088705399999995  1.0744163250000156 12.781810899999996  L 1.0335080990000165 12.740902699999992  C 0.726613644400004 12.434008199999994  0.726613644400004 11.936434000000006  1.0335080990000165 11.629539499999993  L 5.663319000000001 7  L 1.0335080990000165 2.370460460000004  C 0.7545131402999914 2.091465499999998  0.7291499622999709 1.6548839539999989  0.9574185650000118 1.3472368890000013  L 1.0335080990000165 1.259097324999999  Z " fill-rule="nonzero" fill="#999999" stroke="none" transform="matrix(1 0 0 1 1521 2229 )" />
  </g>
</svg>