<?xml version="1.0" encoding="utf-8"?>
<svg version="1.1" xmlns:xlink="http://www.w3.org/1999/xlink" width="10px" height="71px" preserveAspectRatio="xMidYMin meet" viewBox="1500 57  8 71" xmlns="http://www.w3.org/2000/svg">
  <path d="M 1504.5 58  L 1504.5 118  A 5 5 0 0 1 1499.5 123.5 L 628 123.5  A 5 5 0 0 0 623.5 128.5 L 623.5 659  " stroke-width="1" stroke="#ff3399" fill="none" />
  <path d="M 1504.5 57  A 3 3 0 0 0 1501.5 60 A 3 3 0 0 0 1504.5 63 A 3 3 0 0 0 1507.5 60 A 3 3 0 0 0 1504.5 57 Z M 616 659  L 623.5 670  L 631 659  L 616 659  Z " fill-rule="nonzero" fill="#ff3399" stroke="none" />
</svg>