<?xml version="1.0" encoding="utf-8"?>
<svg version="1.1" xmlns:xlink="http://www.w3.org/1999/xlink" width="25px" height="25px" xmlns="http://www.w3.org/2000/svg">
  <g transform="matrix(1 0 0 1 -1333 -100 )">
    <path d="M 1333 100  L 1358 100  L 1358 125  L 1333 125  L 1333 100  " fill-rule="nonzero" fill="#cccccc" stroke="none" />
    <path d="M 1335 102  L 1356 102  L 1356 123  L 1335 123  L 1335 102  " fill-rule="nonzero" fill="#ffffff" stroke="none" />
    <path d="M 1347.875 107.5  C 1346.825 107.5  1346 106.675  1346 105.625  C 1346 104.575  1346.825 103.75  1347.875 103.75  C 1348.925 103.75  1349.75 104.575  1349.75 105.625  C 1349.75 106.675  1348.925 107.5  1347.875 107.5  " fill-rule="nonzero" fill="#cccccc" stroke="none" />
    <path d="M 1336 123  L 1336 112  L 1341 107  L 1348 111  L 1352 110  L 1356 111  L 1356 123  L 1336 123  " fill-rule="nonzero" fill="#169bd5" stroke="none" />
  </g>
</svg>