<?xml version="1.0" encoding="utf-8"?>
<svg version="1.1" xmlns:xlink="http://www.w3.org/1999/xlink" width="450px" height="121px" xmlns="http://www.w3.org/2000/svg">
  <g transform="matrix(1 0 0 1 -120 -1079 )">
    <path d="M 121 1083  A 3 3 0 0 1 124 1080 L 566 1080  A 3 3 0 0 1 569 1083 L 569 1196  A 3 3 0 0 1 566 1199 L 124 1199  A 3 3 0 0 1 121 1196 L 121 1083  Z " fill-rule="nonzero" fill="#ff3399" stroke="none" fill-opacity="0.09803921568627451" />
    <path d="M 120.5 1083  A 3.5 3.5 0 0 1 124 1079.5 L 566 1079.5  A 3.5 3.5 0 0 1 569.5 1083 L 569.5 1196  A 3.5 3.5 0 0 1 566 1199.5 L 124 1199.5  A 3.5 3.5 0 0 1 120.5 1196 L 120.5 1083  Z " stroke-width="1" stroke-dasharray="9,4" stroke="#ff3399" fill="none" stroke-dashoffset="0.5" />
  </g>
</svg>