<?xml version="1.0" encoding="utf-8"?>
<svg version="1.1" xmlns:xlink="http://www.w3.org/1999/xlink" width="14px" height="12px" xmlns="http://www.w3.org/2000/svg">
  <g transform="matrix(1 0 0 1 -20 -963 )">
    <path d="M 13.826822916666668 9.778125  C 13.942274305555555 9.896875000000001  14 10.037500000000001  14 10.2  L 14 11.399999999999999  C 14 11.5625  13.942274305555555 11.703125  13.826822916666668 11.821874999999999  C 13.71137152777778 11.940625  13.57465277777778 12  13.416666666666668 12  L 0.5833333333333333 12  C 0.42534722222222227 12  0.2886284722222222 11.940625  0.17317708333333331 11.821874999999999  C 0.05772569444444445 11.703125  0 11.5625  0 11.399999999999999  L 0 10.2  C 0 10.037500000000001  0.05772569444444445 9.896875000000001  0.17317708333333331 9.778125  C 0.2886284722222222 9.659375  0.42534722222222227 9.600000000000001  0.5833333333333333 9.600000000000001  L 13.416666666666668 9.600000000000001  C 13.57465277777778 9.600000000000001  13.71137152777778 9.659375  13.826822916666668 9.778125  Z M 13.826822916666668 4.9781249999999995  C 13.942274305555555 5.096874999999999  14 5.237499999999999  14 5.3999999999999995  L 14 6.6000000000000005  C 14 6.762499999999999  13.942274305555555 6.903124999999999  13.826822916666668 7.0218750000000005  C 13.71137152777778 7.140624999999999  13.57465277777778 7.199999999999999  13.416666666666668 7  L 0.5833333333333333 7  C 0.42534722222222227 7.199999999999999  0.2886284722222222 7.140624999999999  0.17317708333333331 7.0218750000000005  C 0.05772569444444445 6.903124999999999  0 6.762499999999999  0 6.6000000000000005  L 0 5.3999999999999995  C 0 5.237499999999999  0.05772569444444445 5.096874999999999  0.17317708333333331 4.9781249999999995  C 0.2886284722222222 4.859375000000001  0.42534722222222227 4.800000000000001  0.5833333333333333 5  L 13.416666666666668 5  C 13.57465277777778 4.800000000000001  13.71137152777778 4.859375000000001  13.826822916666668 4.9781249999999995  Z M 13.826822916666668 0.17812500000000053  C 13.942274305555555 0.2968749999999991  14 0.4374999999999991  14 0.6000000000000005  L 14 1.8000000000000003  C 14 1.962499999999999  13.942274305555555 2.103124999999999  13.826822916666668 2.2218750000000003  C 13.71137152777778 2.340624999999999  13.57465277777778 2.3999999999999995  13.416666666666668 2.3999999999999995  L 0.5833333333333333 2.3999999999999995  C 0.42534722222222227 2.3999999999999995  0.2886284722222222 2.340624999999999  0.17317708333333331 2.2218750000000003  C 0.05772569444444445 2.103124999999999  0 1.962499999999999  0 1.8000000000000003  L 0 0.6000000000000005  C 0 0.4374999999999991  0.05772569444444445 0.2968749999999991  0.17317708333333331 0.17812500000000053  C 0.2886284722222222 0.05937499999999929  0.42534722222222227 0  0.5833333333333333 0  L 13.416666666666668 0  C 13.57465277777778 0  13.71137152777778 0.05937499999999929  13.826822916666668 0.17812500000000053  Z " fill-rule="nonzero" fill="#ffffff" stroke="none" transform="matrix(1 0 0 1 20 963 )" />
  </g>
</svg>