<?xml version="1.0" encoding="utf-8"?>
<svg version="1.1" xmlns:xlink="http://www.w3.org/1999/xlink" width="360px" height="150px" xmlns="http://www.w3.org/2000/svg">
  <g transform="matrix(1 0 0 1 -827 -640 )">
    <path d="M 828 644  A 3 3 0 0 1 831 641 L 1183 641  A 3 3 0 0 1 1186 644 L 1186 786  A 3 3 0 0 1 1183 789 L 831 789  A 3 3 0 0 1 828 786 L 828 644  Z " fill-rule="nonzero" fill="#ff3399" stroke="none" fill-opacity="0.09803921568627451" />
    <path d="M 827.5 644  A 3.5 3.5 0 0 1 831 640.5 L 1183 640.5  A 3.5 3.5 0 0 1 1186.5 644 L 1186.5 786  A 3.5 3.5 0 0 1 1183 789.5 L 831 789.5  A 3.5 3.5 0 0 1 827.5 786 L 827.5 644  Z " stroke-width="1" stroke-dasharray="9,4" stroke="#ff3399" fill="none" stroke-dashoffset="0.5" />
  </g>
</svg>