<?xml version="1.0" encoding="utf-8"?>
<svg version="1.1" xmlns:xlink="http://www.w3.org/1999/xlink" width="11px" height="6px" xmlns="http://www.w3.org/2000/svg">
  <g transform="matrix(1 0 0 1 -184 -525 )">
    <path d="M 11 4.669565217391304  C 11 4.7719806763285035  10.956782464846981 4.8599033816425115  10.870347394540943 4.933333333333334  L 9.737593052109181 5.889855072463768  C 9.651157981803145 5.963285024154589  9.54880066170389 6  9.430521091811414 6  C 9.312241521918942 6  9.209884201819687 5.963285024154589  9.123449131513647 5.889855072463768  L 5.5 2.8115942028985508  L 1.8765508684863523 5.889855072463768  C 1.7901157981803146 5.963285024154589  1.687758478081059 6  1.5694789081885854 6  C 1.4511993382961128 6  1.348842018196857 5.963285024154589  1.2624069478908189 5.889855072463768  L 0.12965260545905707 4.933333333333334  C 0.043217535153019085 4.8599033816425115  0 4.7719806763285035  0 4.669565217391304  C 0 4.567149758454105  0.043217535153019085 4.479227053140096  0.12965260545905707 4.405797101449275  L 5.192928039702233 0.11014492753623184  C 5.279363110008272 0.03671497584541039  5.381720430107528 0  5.5 0  C 5.618279569892473 0  5.720636889991729 0.03671497584541039  5.807071960297766 0.11014492753623184  L 10.870347394540943 4.405797101449275  C 10.956782464846981 4.479227053140096  11 4.567149758454105  11 4.669565217391304  Z " fill-rule="nonzero" fill="#aaaaaa" stroke="none" transform="matrix(1 0 0 1 184 525 )" />
  </g>
</svg>