<?xml version="1.0" encoding="utf-8"?>
<svg version="1.1" xmlns:xlink="http://www.w3.org/1999/xlink" width="309px" height="119px" xmlns="http://www.w3.org/2000/svg">
  <g transform="matrix(1 0 0 1 -534 -176 )">
    <path d="M 535 180  A 3 3 0 0 1 538 177 L 839 177  A 3 3 0 0 1 842 180 L 842 291  A 3 3 0 0 1 839 294 L 538 294  A 3 3 0 0 1 535 291 L 535 180  Z " fill-rule="nonzero" fill="#ff3399" stroke="none" fill-opacity="0.09803921568627451" />
    <path d="M 534.5 180  A 3.5 3.5 0 0 1 538 176.5 L 839 176.5  A 3.5 3.5 0 0 1 842.5 180 L 842.5 291  A 3.5 3.5 0 0 1 839 294.5 L 538 294.5  A 3.5 3.5 0 0 1 534.5 291 L 534.5 180  Z " stroke-width="1" stroke-dasharray="9,4" stroke="#ff3399" fill="none" stroke-dashoffset="0.5" />
  </g>
</svg>