<?xml version="1.0" encoding="utf-8"?>
<svg version="1.1" xmlns:xlink="http://www.w3.org/1999/xlink" width="303px" height="177px" xmlns="http://www.w3.org/2000/svg">
  <defs>
    <mask fill="white" id="clip165">
      <path d="M 0 1.71  C 0 0.7655930775000029  1.636571436923077 0  3.6553846153846155 0  L 293.3446153846154 0  C 295.3634285630769 0  297 0.7655930775000029  297 1.71  L 297 169.29  C 297 170.2344069225  295.3634285630769 171  293.3446153846154 171  L 3.6553846153846155 171  C 1.636571436923077 171  0 170.2344069225  0 169.29  L 0 1.71  Z " fill-rule="evenodd" />
    </mask>
    <filter x="1152px" y="281px" width="303px" height="177px" filterUnits="userSpaceOnUse" id="filter166">
      <feOffset dx="0" dy="2" in="SourceAlpha" result="shadowOffsetInner" />
      <feGaussianBlur stdDeviation="1.5" in="shadowOffsetInner" result="shadowGaussian" />
      <feComposite in2="shadowGaussian" operator="atop" in="SourceAlpha" result="shadowComposite" />
      <feColorMatrix type="matrix" values="0 0 0 0 0  0 0 0 0 0  0 0 0 0 0  0 0 0 0.09803921568627451 0  " in="shadowComposite" />
    </filter>
    <g id="widget167">
      <path d="M 0 1.71  C 0 0.7655930775000029  1.636571436923077 0  3.6553846153846155 0  L 293.3446153846154 0  C 295.3634285630769 0  297 0.7655930775000029  297 1.71  L 297 169.29  C 297 170.2344069225  295.3634285630769 171  293.3446153846154 171  L 3.6553846153846155 171  C 1.636571436923077 171  0 170.2344069225  0 169.29  L 0 1.71  Z " fill-rule="nonzero" fill="#ffffff" stroke="none" transform="matrix(1 0 0 1 1155 282 )" />
      <path d="M 0 1.71  C 0 0.7655930775000029  1.636571436923077 0  3.6553846153846155 0  L 293.3446153846154 0  C 295.3634285630769 0  297 0.7655930775000029  297 1.71  L 297 169.29  C 297 170.2344069225  295.3634285630769 171  293.3446153846154 171  L 3.6553846153846155 171  C 1.636571436923077 171  0 170.2344069225  0 169.29  L 0 1.71  Z " stroke-width="2" stroke="#d9d9d9" fill="none" transform="matrix(1 0 0 1 1155 282 )" mask="url(#clip165)" />
    </g>
  </defs>
  <g transform="matrix(1 0 0 1 -1152 -281 )">
    <use xlink:href="#widget167" filter="url(#filter166)" />
    <use xlink:href="#widget167" />
  </g>
</svg>