<?xml version="1.0" encoding="utf-8"?>
<svg version="1.1" xmlns:xlink="http://www.w3.org/1999/xlink" width="297px" height="32px" xmlns="http://www.w3.org/2000/svg">
  <defs>
    <mask fill="white" id="clip164">
      <path d="M 3.1984615384615385 0  C 3.1984615384615385 0  293.8015384615385 0  293.8015384615385 0  C 294.6847689415385 0  295.4843843261538 0.44771525028571496  296.0631925476923 1.1715728800000014  C 296.6419998553846 1.8954305028571443  297 2.8954305028571445  297 4  C 297 4  297 28  297 28  C 297 29.104569485714283  296.6419998553846 30.104569485714283  296.0631925476923 30.82842708571429  C 295.4843843261538 31.552284800000002  294.6847689415385 32  293.8015384615385 32  C 293.8015384615385 32  3.1984615384615385 32  3.1984615384615385 32  C 2.315230775169231 32  1.5156153905538463 31.552284800000002  0.9368076990461539 30.82842708571429  C 0.35800000205538485 30.104569485714283  0 29.104569485714283  0 28  C 0 28  0 4  0 4  C 0 2.8954305028571445  0.35800000205538485 1.8954305028571443  0.9368076990461539 1.1715728800000014  C 1.5156153905538463 0.44771525028571496  2.315230775169231 0  3.1984615384615385 0  Z " fill-rule="evenodd" />
    </mask>
  </defs>
  <g transform="matrix(1 0 0 1 -1155 -246 )">
    <path d="M 3.1984615384615385 0  C 3.1984615384615385 0  293.8015384615385 0  293.8015384615385 0  C 294.6847689415385 0  295.4843843261538 0.44771525028571496  296.0631925476923 1.1715728800000014  C 296.6419998553846 1.8954305028571443  297 2.8954305028571445  297 4  C 297 4  297 28  297 28  C 297 29.104569485714283  296.6419998553846 30.104569485714283  296.0631925476923 30.82842708571429  C 295.4843843261538 31.552284800000002  294.6847689415385 32  293.8015384615385 32  C 293.8015384615385 32  3.1984615384615385 32  3.1984615384615385 32  C 2.315230775169231 32  1.5156153905538463 31.552284800000002  0.9368076990461539 30.82842708571429  C 0.35800000205538485 30.104569485714283  0 29.104569485714283  0 28  C 0 28  0 4  0 4  C 0 2.8954305028571445  0.35800000205538485 1.8954305028571443  0.9368076990461539 1.1715728800000014  C 1.5156153905538463 0.44771525028571496  2.315230775169231 0  3.1984615384615385 0  Z " fill-rule="nonzero" fill="#ffffff" stroke="none" transform="matrix(1 0 0 1 1155 246 )" />
    <path d="M 3.1984615384615385 0  C 3.1984615384615385 0  293.8015384615385 0  293.8015384615385 0  C 294.6847689415385 0  295.4843843261538 0.44771525028571496  296.0631925476923 1.1715728800000014  C 296.6419998553846 1.8954305028571443  297 2.8954305028571445  297 4  C 297 4  297 28  297 28  C 297 29.104569485714283  296.6419998553846 30.104569485714283  296.0631925476923 30.82842708571429  C 295.4843843261538 31.552284800000002  294.6847689415385 32  293.8015384615385 32  C 293.8015384615385 32  3.1984615384615385 32  3.1984615384615385 32  C 2.315230775169231 32  1.5156153905538463 31.552284800000002  0.9368076990461539 30.82842708571429  C 0.35800000205538485 30.104569485714283  0 29.104569485714283  0 28  C 0 28  0 4  0 4  C 0 2.8954305028571445  0.35800000205538485 1.8954305028571443  0.9368076990461539 1.1715728800000014  C 1.5156153905538463 0.44771525028571496  2.315230775169231 0  3.1984615384615385 0  Z " stroke-width="2" stroke="#d9d9d9" fill="none" transform="matrix(1 0 0 1 1155 246 )" mask="url(#clip164)" />
  </g>
</svg>