<?xml version="1.0" encoding="utf-8"?>
<svg version="1.1" xmlns:xlink="http://www.w3.org/1999/xlink" width="10px" height="6px" xmlns="http://www.w3.org/2000/svg">
  <g transform="matrix(1 0 0 1 -1514 -639 )">
    <path d="M 9.899799599198445 0.6185567010309084  C 9.96659986639952 0.6872852233675977  10 0.7663230240550137  10 0.8556701030926861  C 10 0.9450171821305938  9.96659986639952 1.0240549828177745  9.899799599198445 1.0927835051546988  L 5.230460921843701 5.896907216494848  C 5.1636606546426265 5.965635738831538  5.086840347361431 6  5 6  C 4.913159652638569 6  4.8363393453573735 5.965635738831538  4.769539078156299 5.896907216494848  L 0.10020040080155468 1.0927835051546988  C 0.03340013360048033 1.0240549828177745  0 0.9450171821305938  0 0.8556701030926861  C 0 0.7663230240550137  0.03340013360048033 0.6872852233675977  0.10020040080155468 0.6185567010309084  L 0.6012024048096691 0.1030927835051514  C 0.6680026720106298 0.03436426116846221  0.7448229792919392 0  0.8316633266532563 0  C 0.918503674014687 0  0.9953239812958827 0.03436426116846221  1.062124248496957 0.1030927835051514  L 5 4.154639175257767  L 8.937875751503043 0.1030927835051514  C 9.004676018704117 0.03436426116846221  9.081496325985313 0  9.168336673346744 0  C 9.25517702070806 0  9.33199732798937 0.03436426116846221  9.39879759519033 0.1030927835051514  L 9.899799599198445 0.6185567010309084  Z " fill-rule="nonzero" fill="#dcdfe6" stroke="none" transform="matrix(1 0 0 1 1514 639 )" />
  </g>
</svg>